<svg xmlns="http://www.w3.org/2000/svg" xmlns:xlink="http://www.w3.org/1999/xlink" version="1.1" x="0px" y="0px" viewBox="0 0 100 125" enable-background="new 0 0 100 100" xml:space="preserve"><g><path fill="#000000" d="M86.562,35.067l-0.145-0.406l-0.797-1.19L58.347,6.198l-1.206-0.803l-0.368-0.131L55.71,5.051L55.455,5   H28.667c-8.554,0.002-15.483,6.931-15.485,15.485v59.03C13.184,88.068,20.113,94.997,28.667,95h42.666   c8.553-0.003,15.482-6.931,15.485-15.485V36.364l-0.051-0.258L86.562,35.067z M59.545,18.967l13.306,13.306h-6.487   c-3.765-0.007-6.812-3.054-6.819-6.818V18.967z M71.333,86.818H28.667c-4.032-0.007-7.296-3.271-7.304-7.303v-59.03   c0.007-4.032,3.271-7.296,7.304-7.304h22.697v12.273c0.002,8.286,6.714,14.997,15,15l12.273,0v39.06   C78.629,83.547,75.365,86.811,71.333,86.818z"/><path fill="#000000" d="M39.123,52.505c-1.597-1.598-4.187-1.598-5.785,0l-6.25,6.25c-0.798,0.799-1.198,1.846-1.198,2.893   c0,1.047,0.4,2.094,1.198,2.893l6.25,6.25c1.598,1.597,4.188,1.597,5.785,0c1.597-1.598,1.597-4.188,0-5.785l-3.357-3.357   l3.357-3.357C40.721,56.693,40.721,54.103,39.123,52.505z"/><path fill="#000000" d="M72.912,58.755L72.912,58.755l-6.25-6.25c-1.597-1.598-4.187-1.598-5.785,0   c-1.597,1.598-1.597,4.188,0,5.785l3.357,3.357l-3.357,3.357c-1.597,1.598-1.597,4.188,0,5.785c1.598,1.597,4.188,1.597,5.785,0   l6.249-6.249l0.001-0.001c0.798-0.799,1.199-1.846,1.198-2.893C74.11,60.6,73.71,59.554,72.912,58.755z"/><path fill="#000000" d="M55.065,47.219c-2.132-0.748-4.467,0.373-5.216,2.505l-7.42,21.136c-0.748,2.132,0.374,4.467,2.505,5.215   c2.132,0.748,4.467-0.373,5.216-2.505l7.42-21.136C58.319,50.302,57.197,47.968,55.065,47.219z"/></g><text x="0" y="115" fill="#000000" font-size="5px" font-weight="bold" font-family="'Helvetica Neue', Helvetica, Arial-Unicode, Arial, Sans-serif">Created by Pumpkin Juice</text><text x="0" y="120" fill="#000000" font-size="5px" font-weight="bold" font-family="'Helvetica Neue', Helvetica, Arial-Unicode, Arial, Sans-serif">from the Noun Project</text></svg>