<svg xmlns="http://www.w3.org/2000/svg" viewBox="0 0 48 60" x="0px" y="0px"><path fill="#000000" fill-rule="evenodd" d="M40,20.0127075 L40,15.9992748 C40,13.7867947 38.2054773,12 35.9918214,12 L22.0075684,12 L19.1746315,7.67133451 C18.5701975,6.7477726 17.1835685,6 16.0767644,6 L3.99029394,6 C1.79975948,6 0,7.7864638 0,9.99017859 L0,38.0098214 C0,39.8769124 1.28469057,41.443073 3.02030344,41.8791772 C3.32304849,41.9582471 3.64876334,42.0006986 3.99379325,42.0008447 L36.620551,42.014665 C38.5041841,42.0154629 40.4870663,40.7301267 41.2547697,39.0027941 L47.6325537,24.65278 C48.6664712,22.3264657 47.1716068,20.0157453 44.6222453,20.0146654 L40,20.0127075 L40,20.0127075 Z M35.9998088,20.011013 C35.9999292,17.6334362 36,15.9992748 36,15.9992748 C36,15.9998002 22.0075684,16 22.0075684,16 C20.658105,16 19.3996088,15.3195781 18.6606307,14.1904356 L16,10.0097802 L3.99029394,10 C3.99820994,10 3.99989861,22.2772439 4.00013591,30.5752653 L7.36126891,23.0127161 C8.1289723,21.2853834 10.1118545,20.0000472 11.9954876,20.0008451 L35.9998088,20.011013 L35.9998088,20.011013 Z M11.9937933,24.0008447 L43.5299721,24 L37.5995235,37.3782402 C37.4746834,37.6591304 36.9260028,38.0147941 36.6222453,38.0146654 L5,38 L11.0165151,24.6372699 C11.1413552,24.3563797 11.6900358,24.0007161 11.9937933,24.0008447 L11.9937933,24.0008447 Z"/><text x="0" y="63" fill="#000000" font-size="5px" font-weight="bold" font-family="'Helvetica Neue', Helvetica, Arial-Unicode, Arial, Sans-serif">Created by Sergey Minkin</text><text x="0" y="68" fill="#000000" font-size="5px" font-weight="bold" font-family="'Helvetica Neue', Helvetica, Arial-Unicode, Arial, Sans-serif">from the Noun Project</text></svg>