<svg xmlns:dc="http://purl.org/dc/elements/1.1/" xmlns:cc="http://creativecommons.org/ns#" xmlns:rdf="http://www.w3.org/1999/02/22-rdf-syntax-ns#" xmlns:svg="http://www.w3.org/2000/svg" xmlns="http://www.w3.org/2000/svg" xmlns:sodipodi="http://sodipodi.sourceforge.net/DTD/sodipodi-0.dtd" xmlns:inkscape="http://www.inkscape.org/namespaces/inkscape" version="1.1" x="0px" y="0px" viewBox="0 0 100 125"><g transform="translate(0,-952.36218)"><path d="m 13,965.36217 c -4.38011,0 -8,3.61989 -8,8 l 0,58.00003 c 0,4.3801 3.61989,8 8,8 l 74,0 c 4.38011,0 8,-3.6199 8,-8 l 0,-44.00001 c 0,-4.3801 -3.61989,-8.00002 -8,-8.00002 l -40.375,0 c -2.78807,-3.59978 -5.10344,-8.52693 -8.03125,-11.5 -1.2868,-1.28709 -3.23575,-2.5 -5.59375,-2.5 z m 0,6 20,0 c 0.41201,0 0.70718,0.11329 1.34375,0.75 2.91519,3.6962 5.41464,7.79384 8.15625,11.90622 0.54411,0.8217 1.51453,1.3433 2.5,1.3438 l 42,0 c 1.15991,0 2,0.8401 2,2 l 0,44.00001 c 0,1.1599 -0.84009,2 -2,2 l -74,0 c -1.15991,0 -2,-0.8401 -2,-2 l 0,-58.00003 c 0,-1.15991 0.84008,-2 2,-2 z" style="text-indent:0;text-transform:none;direction:ltr;block-progression:tb;baseline-shift:baseline;color:#000000;enable-background:accumulate;" fill="#000000" fill-opacity="1" stroke="none" marker="none" visibility="visible" display="inline" overflow="visible"/></g><text x="0" y="115" fill="#000000" font-size="5px" font-weight="bold" font-family="'Helvetica Neue', Helvetica, Arial-Unicode, Arial, Sans-serif">Created by unlimicon</text><text x="0" y="120" fill="#000000" font-size="5px" font-weight="bold" font-family="'Helvetica Neue', Helvetica, Arial-Unicode, Arial, Sans-serif">from the Noun Project</text></svg>